<svg xmlns="http://www.w3.org/2000/svg" width="48" height="48" viewBox="0 0 48 48" fill="none">
  <!-- gun (upper left) -->
  <rect x="8" y="5.2" width="3" height="2" rx="0.8" fill="#0b3b57"/>
  <rect x="8" y="6.6" width="10" height="6.6" rx="1.6" fill="#47bfff"/>
  <rect x="16" y="9" width="10" height="3.4" rx="1.2" fill="#c084fc"/>
  <rect x="24.6" y="9.7" width="1.4" height="2" rx="0.4" fill="#ede6ff"/>
  <path d="M10 12 L15 12 L13.5 22.5 L8.5 20.7 Z" fill="#7e14ff"/>
  <rect x="11" y="13" width="2" height="2.4" rx="0.6" fill="#0b3b57"/>

  <!-- slash divider -->
  <line x1="6" y1="44" x2="42" y2="4" stroke="#ede6ff" stroke-width="3.4" stroke-linecap="round" stroke-opacity="0.85"/>

  <!-- sword (lower right) -->
  <path d="M33.5 19 L36.5 25 L36.5 36 L30.5 36 L30.5 25 Z" fill="#c084fc"/>
  <path d="M33.5 19 L36.5 25 L33.5 25 Z" fill="#ede6ff"/>
  <rect x="27.5" y="36" width="12" height="2.4" rx="1.2" fill="#47bfff"/>
  <rect x="32" y="38.4" width="3" height="5.4" rx="1.2" fill="#7e14ff"/>
  <circle cx="33.5" cy="45" r="1.7" fill="#0b3b57"/>
</svg>
