<svg xmlns="http://www.w3.org/2000/svg" width="48" height="48" viewBox="0 0 48 48" fill="none">
  <!-- gun (upper left) -->
  <rect x="4.5" y="14.25" width="4.2" height="9" rx="1.6" fill="#7e14ff" transform="rotate(15 4.5 14.25)"/>
  <rect x="7.5" y="8.75" width="7" height="6.5" rx="1.4" fill="#aa3bff"/>
  <circle cx="9.5" cy="15.75" r="2" fill="none" stroke="#0b3b57" stroke-width="1.2"/>
  <rect x="12.5" y="11.25" width="11" height="3" rx="1" fill="#47bfff"/>
  <rect x="22" y="11.25" width="1.5" height="3" fill="#ede6ff"/>

  <!-- slash divider -->
  <line x1="6" y1="44" x2="42" y2="4" stroke="#ede6ff" stroke-width="3.4" stroke-linecap="round" stroke-opacity="0.85"/>

  <!-- sword (lower right) -->
  <path d="M33.5 19 L36.5 25 L36.5 36 L30.5 36 L30.5 25 Z" fill="#c084fc"/>
  <path d="M33.5 19 L36.5 25 L33.5 25 Z" fill="#ede6ff"/>
  <rect x="27.5" y="36" width="12" height="2.4" rx="1.2" fill="#47bfff"/>
  <rect x="32" y="38.4" width="3" height="5.4" rx="1.2" fill="#7e14ff"/>
  <circle cx="33.5" cy="45" r="1.7" fill="#0b3b57"/>
</svg>
